<svg preserveAspectRatio="none" width="100%" height="100%" overflow="visible" style="display: block;" viewBox="0 0 74 74" fill="none" xmlns="http://www.w3.org/2000/svg">
<g id="icon/Sectors/ Delivery Clock Time">
<path id="Vector" opacity="0.7" fill-rule="evenodd" clip-rule="evenodd" d="M53.0802 34.56C55.4974 34.56 57.7963 35.0336 59.911 35.8823C60.4976 36.1177 61.1616 35.6999 61.1602 35.068L61.1348 23.6593C61.1348 18.9916 59.5694 14.8647 56.7517 12.047C54.0479 9.40008 50.4048 7.977 46.1641 7.977H45.1983C44.7259 7.977 44.3434 8.36058 44.3445 8.83295L44.3994 31.1447C44.3994 31.8277 44.0579 32.4823 43.5171 32.8808C42.9479 33.2792 42.2364 33.3931 41.5817 33.1938L34.2102 30.7747L26.7532 33.2223C26.5539 33.3077 26.3262 33.3361 26.0985 33.3361C25.6432 33.3361 25.2162 33.1938 24.8462 32.9377C24.277 32.5392 23.9639 31.8846 23.9639 31.2016L23.9365 8.88675C23.9359 8.41556 23.5538 8.03392 23.0826 8.03392H22.1139C17.617 8.03392 13.8601 9.62777 11.2416 12.417C8.62316 15.1493 7.1147 19.077 7.1147 23.7732L7.17162 46.3715C7.20009 50.8969 8.5947 54.7961 11.2416 57.6138C13.9455 60.5169 17.7309 62.0538 22.1709 62.0538H22.2278L35.4466 62.0282C36.0949 62.0271 36.5096 61.3292 36.2421 60.7389C35.185 58.4085 34.5802 55.8151 34.5802 53.06C34.5802 42.8423 42.8625 34.56 53.0802 34.56Z" fill="#FFFFFF"/>
<path id="Vector_2" fill-rule="evenodd" clip-rule="evenodd" d="M33.526 26.5031C33.9529 26.3608 34.4168 26.3579 34.8551 26.5003L40.1148 28.2108L40.0793 8.85154C40.0784 8.37987 39.6953 7.99823 39.2237 7.99926L29.051 8.02117C28.5797 8.0222 28.1984 8.40478 28.1989 8.87599L28.2207 28.2535L33.526 26.5031Z" fill="#FFFFFF"/>
<path id="Vector_3" fill-rule="evenodd" clip-rule="evenodd" d="M53.0819 61.7527C48.2947 61.7527 44.3983 57.8592 44.3983 53.0719C44.3983 48.2847 48.2947 44.3912 53.0819 44.3912C57.8691 44.3912 61.7598 48.2847 61.7598 53.0719C61.7598 57.8592 57.8691 61.7527 53.0819 61.7527ZM53.0819 40.1219C45.9409 40.1219 40.1291 45.9309 40.1291 53.0719C40.1291 60.2129 45.9409 66.0219 53.0819 66.0219C60.2201 66.0219 66.0291 60.2129 66.0291 53.0719C66.0291 45.9309 60.2201 40.1219 53.0819 40.1219Z" fill="#FFFFFF"/>
<path id="Vector_4" fill-rule="evenodd" clip-rule="evenodd" d="M54.5608 48.7324L51.615 51.5188C50.7583 52.33 50.7213 53.6819 51.5325 54.5386C51.9509 54.9826 52.5172 55.2046 53.0808 55.2046C53.6102 55.2046 54.1367 55.0139 54.5494 54.6211L57.4952 51.8347C58.3519 51.0236 58.3889 49.6716 57.5805 48.815C56.7694 47.9611 55.4175 47.9213 54.5608 48.7324Z" fill="#FFFFFF"/>
</g>
</svg>
